<mxfile host="app.diagrams.net" agent="Mozilla/5.0 (Windows NT 10.0; Win64; x64; rv:131.0) Gecko/20100101 Firefox/131.0" version="24.8.3">
  <diagram name="Page-1" id="WWjLtKliqezvAFkfpZqV">
    <mxGraphModel dx="1434" dy="774" grid="1" gridSize="10" guides="1" tooltips="1" connect="1" arrows="1" fold="1" page="1" pageScale="1" pageWidth="1100" pageHeight="1700" math="0" shadow="0">
      <root>
        <mxCell id="0" />
        <mxCell id="1" parent="0" />
        <mxCell id="W9LA0Zj8rEDHQ3z-ReAV-1" value="AWS Cloud" style="points=[[0,0],[0.25,0],[0.5,0],[0.75,0],[1,0],[1,0.25],[1,0.5],[1,0.75],[1,1],[0.75,1],[0.5,1],[0.25,1],[0,1],[0,0.75],[0,0.5],[0,0.25]];outlineConnect=0;gradientColor=none;html=1;whiteSpace=wrap;fontSize=12;fontStyle=0;container=1;pointerEvents=0;collapsible=0;recursiveResize=0;shape=mxgraph.aws4.group;grIcon=mxgraph.aws4.group_aws_cloud_alt;strokeColor=#232F3E;fillColor=none;verticalAlign=top;align=left;spacingLeft=30;fontColor=#232F3E;dashed=0;" vertex="1" parent="1">
          <mxGeometry x="40" y="40" width="1040" height="1080" as="geometry" />
        </mxCell>
        <mxCell id="W9LA0Zj8rEDHQ3z-ReAV-2" value="Region" style="points=[[0,0],[0.25,0],[0.5,0],[0.75,0],[1,0],[1,0.25],[1,0.5],[1,0.75],[1,1],[0.75,1],[0.5,1],[0.25,1],[0,1],[0,0.75],[0,0.5],[0,0.25]];outlineConnect=0;gradientColor=none;html=1;whiteSpace=wrap;fontSize=12;fontStyle=0;container=1;pointerEvents=0;collapsible=0;recursiveResize=0;shape=mxgraph.aws4.group;grIcon=mxgraph.aws4.group_region;strokeColor=#00A4A6;fillColor=none;verticalAlign=top;align=left;spacingLeft=30;fontColor=#147EBA;dashed=1;" vertex="1" parent="1">
          <mxGeometry x="80" y="80" width="960" height="1000" as="geometry" />
        </mxCell>
        <mxCell id="W9LA0Zj8rEDHQ3z-ReAV-88" value="Internet Gateway" style="text;html=1;align=center;verticalAlign=middle;whiteSpace=wrap;rounded=0;" vertex="1" parent="W9LA0Zj8rEDHQ3z-ReAV-2">
          <mxGeometry x="520" y="10" width="100" height="20" as="geometry" />
        </mxCell>
        <mxCell id="W9LA0Zj8rEDHQ3z-ReAV-113" value="US-West-2" style="text;html=1;align=center;verticalAlign=middle;whiteSpace=wrap;rounded=0;" vertex="1" parent="W9LA0Zj8rEDHQ3z-ReAV-2">
          <mxGeometry x="61" y="-10" width="99" height="45" as="geometry" />
        </mxCell>
        <mxCell id="W9LA0Zj8rEDHQ3z-ReAV-114" value="Web Tier" style="text;html=1;align=center;verticalAlign=middle;whiteSpace=wrap;rounded=0;flipV=1;flipH=0;direction=west;" vertex="1" parent="W9LA0Zj8rEDHQ3z-ReAV-2">
          <mxGeometry x="-20" y="270" width="60" height="30" as="geometry" />
        </mxCell>
        <mxCell id="W9LA0Zj8rEDHQ3z-ReAV-115" value="Application Tier" style="text;html=1;align=center;verticalAlign=middle;whiteSpace=wrap;rounded=0;" vertex="1" parent="W9LA0Zj8rEDHQ3z-ReAV-2">
          <mxGeometry x="-30" y="600" width="60" height="30" as="geometry" />
        </mxCell>
        <mxCell id="W9LA0Zj8rEDHQ3z-ReAV-3" value="VPC" style="points=[[0,0],[0.25,0],[0.5,0],[0.75,0],[1,0],[1,0.25],[1,0.5],[1,0.75],[1,1],[0.75,1],[0.5,1],[0.25,1],[0,1],[0,0.75],[0,0.5],[0,0.25]];outlineConnect=0;gradientColor=none;html=1;whiteSpace=wrap;fontSize=12;fontStyle=0;container=1;pointerEvents=0;collapsible=0;recursiveResize=0;shape=mxgraph.aws4.group;grIcon=mxgraph.aws4.group_vpc2;strokeColor=#8C4FFF;fillColor=none;verticalAlign=top;align=left;spacingLeft=30;fontColor=#AAB7B8;dashed=0;" vertex="1" parent="1">
          <mxGeometry x="120" y="130" width="880" height="920" as="geometry" />
        </mxCell>
        <mxCell id="W9LA0Zj8rEDHQ3z-ReAV-4" value="Availability Zone" style="fillColor=none;strokeColor=#147EBA;dashed=1;verticalAlign=top;fontStyle=0;fontColor=#147EBA;whiteSpace=wrap;html=1;" vertex="1" parent="W9LA0Zj8rEDHQ3z-ReAV-3">
          <mxGeometry x="40" y="80" width="320" height="640" as="geometry" />
        </mxCell>
        <mxCell id="W9LA0Zj8rEDHQ3z-ReAV-5" value="Availability Zone" style="fillColor=none;strokeColor=#147EBA;dashed=1;verticalAlign=top;fontStyle=0;fontColor=#147EBA;whiteSpace=wrap;html=1;" vertex="1" parent="W9LA0Zj8rEDHQ3z-ReAV-3">
          <mxGeometry x="520" y="80" width="320" height="640" as="geometry" />
        </mxCell>
        <mxCell id="W9LA0Zj8rEDHQ3z-ReAV-8" value="US-West-2a" style="text;html=1;align=center;verticalAlign=middle;whiteSpace=wrap;rounded=0;" vertex="1" parent="W9LA0Zj8rEDHQ3z-ReAV-3">
          <mxGeometry x="250" y="80" width="70" height="30" as="geometry" />
        </mxCell>
        <mxCell id="W9LA0Zj8rEDHQ3z-ReAV-10" value="US-West-2b" style="text;html=1;align=center;verticalAlign=middle;whiteSpace=wrap;rounded=0;" vertex="1" parent="W9LA0Zj8rEDHQ3z-ReAV-3">
          <mxGeometry x="690" y="80" width="160" height="30" as="geometry" />
        </mxCell>
        <mxCell id="W9LA0Zj8rEDHQ3z-ReAV-11" value="" style="outlineConnect=0;dashed=0;verticalLabelPosition=bottom;verticalAlign=top;align=center;html=1;shape=mxgraph.aws3.application_load_balancer;fillColor=#F58534;gradientColor=none;" vertex="1" parent="W9LA0Zj8rEDHQ3z-ReAV-3">
          <mxGeometry x="422.75" y="70" width="34.5" height="40" as="geometry" />
        </mxCell>
        <mxCell id="W9LA0Zj8rEDHQ3z-ReAV-14" value="Private subnet" style="points=[[0,0],[0.25,0],[0.5,0],[0.75,0],[1,0],[1,0.25],[1,0.5],[1,0.75],[1,1],[0.75,1],[0.5,1],[0.25,1],[0,1],[0,0.75],[0,0.5],[0,0.25]];outlineConnect=0;gradientColor=none;html=1;whiteSpace=wrap;fontSize=12;fontStyle=0;container=1;pointerEvents=0;collapsible=0;recursiveResize=0;shape=mxgraph.aws4.group;grIcon=mxgraph.aws4.group_security_group;grStroke=0;strokeColor=#00A4A6;fillColor=#E6F6F7;verticalAlign=top;align=left;spacingLeft=30;fontColor=#147EBA;dashed=0;" vertex="1" parent="W9LA0Zj8rEDHQ3z-ReAV-3">
          <mxGeometry x="80" y="440" width="240" height="240" as="geometry" />
        </mxCell>
        <mxCell id="W9LA0Zj8rEDHQ3z-ReAV-15" value="Private subnet" style="points=[[0,0],[0.25,0],[0.5,0],[0.75,0],[1,0],[1,0.25],[1,0.5],[1,0.75],[1,1],[0.75,1],[0.5,1],[0.25,1],[0,1],[0,0.75],[0,0.5],[0,0.25]];outlineConnect=0;gradientColor=none;html=1;whiteSpace=wrap;fontSize=12;fontStyle=0;container=1;pointerEvents=0;collapsible=0;recursiveResize=0;shape=mxgraph.aws4.group;grIcon=mxgraph.aws4.group_security_group;grStroke=0;strokeColor=#00A4A6;fillColor=#E6F6F7;verticalAlign=top;align=left;spacingLeft=30;fontColor=#147EBA;dashed=0;" vertex="1" parent="W9LA0Zj8rEDHQ3z-ReAV-3">
          <mxGeometry x="560" y="460" width="240" height="220" as="geometry" />
        </mxCell>
        <mxCell id="W9LA0Zj8rEDHQ3z-ReAV-16" value="Public subnet" style="points=[[0,0],[0.25,0],[0.5,0],[0.75,0],[1,0],[1,0.25],[1,0.5],[1,0.75],[1,1],[0.75,1],[0.5,1],[0.25,1],[0,1],[0,0.75],[0,0.5],[0,0.25]];outlineConnect=0;gradientColor=none;html=1;whiteSpace=wrap;fontSize=12;fontStyle=0;container=1;pointerEvents=0;collapsible=0;recursiveResize=0;shape=mxgraph.aws4.group;grIcon=mxgraph.aws4.group_security_group;grStroke=0;strokeColor=#7AA116;fillColor=#F2F6E8;verticalAlign=top;align=left;spacingLeft=30;fontColor=#248814;dashed=0;" vertex="1" parent="W9LA0Zj8rEDHQ3z-ReAV-3">
          <mxGeometry x="80" y="160" width="240" height="240" as="geometry" />
        </mxCell>
        <mxCell id="W9LA0Zj8rEDHQ3z-ReAV-17" value="Public subnet" style="points=[[0,0],[0.25,0],[0.5,0],[0.75,0],[1,0],[1,0.25],[1,0.5],[1,0.75],[1,1],[0.75,1],[0.5,1],[0.25,1],[0,1],[0,0.75],[0,0.5],[0,0.25]];outlineConnect=0;gradientColor=none;html=1;whiteSpace=wrap;fontSize=12;fontStyle=0;container=1;pointerEvents=0;collapsible=0;recursiveResize=0;shape=mxgraph.aws4.group;grIcon=mxgraph.aws4.group_security_group;grStroke=0;strokeColor=#7AA116;fillColor=#F2F6E8;verticalAlign=top;align=left;spacingLeft=30;fontColor=#248814;dashed=0;" vertex="1" parent="W9LA0Zj8rEDHQ3z-ReAV-3">
          <mxGeometry x="560" y="160" width="240" height="240" as="geometry" />
        </mxCell>
        <mxCell id="W9LA0Zj8rEDHQ3z-ReAV-18" value="Auto Scaling group" style="points=[[0,0],[0.25,0],[0.5,0],[0.75,0],[1,0],[1,0.25],[1,0.5],[1,0.75],[1,1],[0.75,1],[0.5,1],[0.25,1],[0,1],[0,0.75],[0,0.5],[0,0.25]];outlineConnect=0;gradientColor=none;html=1;whiteSpace=wrap;fontSize=12;fontStyle=0;container=1;pointerEvents=0;collapsible=0;recursiveResize=0;shape=mxgraph.aws4.groupCenter;grIcon=mxgraph.aws4.group_auto_scaling_group;grStroke=1;strokeColor=#D86613;fillColor=none;verticalAlign=top;align=center;fontColor=#D86613;dashed=1;spacingTop=25;" vertex="1" parent="W9LA0Zj8rEDHQ3z-ReAV-3">
          <mxGeometry x="120" y="200" width="640" height="160" as="geometry" />
        </mxCell>
        <mxCell id="W9LA0Zj8rEDHQ3z-ReAV-21" value="" style="sketch=0;points=[[0,0,0],[0.25,0,0],[0.5,0,0],[0.75,0,0],[1,0,0],[0,1,0],[0.25,1,0],[0.5,1,0],[0.75,1,0],[1,1,0],[0,0.25,0],[0,0.5,0],[0,0.75,0],[1,0.25,0],[1,0.5,0],[1,0.75,0]];outlineConnect=0;fontColor=#232F3E;fillColor=#ED7100;strokeColor=#ffffff;dashed=0;verticalLabelPosition=bottom;verticalAlign=top;align=center;html=1;fontSize=12;fontStyle=0;aspect=fixed;shape=mxgraph.aws4.resourceIcon;resIcon=mxgraph.aws4.ec2;" vertex="1" parent="W9LA0Zj8rEDHQ3z-ReAV-18">
          <mxGeometry x="50" y="42.5" width="77.5" height="77.5" as="geometry" />
        </mxCell>
        <mxCell id="W9LA0Zj8rEDHQ3z-ReAV-44" value="" style="sketch=0;outlineConnect=0;fontColor=#232F3E;gradientColor=none;fillColor=#8C4FFF;strokeColor=none;dashed=0;verticalLabelPosition=bottom;verticalAlign=top;align=center;html=1;fontSize=12;fontStyle=0;aspect=fixed;pointerEvents=1;shape=mxgraph.aws4.route_table;" vertex="1" parent="W9LA0Zj8rEDHQ3z-ReAV-18">
          <mxGeometry x="296" y="80" width="41.05" height="40" as="geometry" />
        </mxCell>
        <mxCell id="W9LA0Zj8rEDHQ3z-ReAV-89" value="EC2" style="text;html=1;align=center;verticalAlign=middle;whiteSpace=wrap;rounded=0;" vertex="1" parent="W9LA0Zj8rEDHQ3z-ReAV-18">
          <mxGeometry x="58.75" y="130" width="60" height="30" as="geometry" />
        </mxCell>
        <mxCell id="W9LA0Zj8rEDHQ3z-ReAV-90" value="EC2" style="text;html=1;align=center;verticalAlign=middle;whiteSpace=wrap;rounded=0;" vertex="1" parent="W9LA0Zj8rEDHQ3z-ReAV-18">
          <mxGeometry x="500" y="130" width="60" height="30" as="geometry" />
        </mxCell>
        <mxCell id="W9LA0Zj8rEDHQ3z-ReAV-102" value="public-rtb" style="text;html=1;align=center;verticalAlign=middle;whiteSpace=wrap;rounded=0;" vertex="1" parent="W9LA0Zj8rEDHQ3z-ReAV-18">
          <mxGeometry x="290" y="120" width="60" height="30" as="geometry" />
        </mxCell>
        <mxCell id="W9LA0Zj8rEDHQ3z-ReAV-23" value="" style="sketch=0;points=[[0,0,0],[0.25,0,0],[0.5,0,0],[0.75,0,0],[1,0,0],[0,1,0],[0.25,1,0],[0.5,1,0],[0.75,1,0],[1,1,0],[0,0.25,0],[0,0.5,0],[0,0.75,0],[1,0.25,0],[1,0.5,0],[1,0.75,0]];outlineConnect=0;fontColor=#232F3E;fillColor=#ED7100;strokeColor=#ffffff;dashed=0;verticalLabelPosition=bottom;verticalAlign=top;align=center;html=1;fontSize=12;fontStyle=0;aspect=fixed;shape=mxgraph.aws4.resourceIcon;resIcon=mxgraph.aws4.ec2;" vertex="1" parent="W9LA0Zj8rEDHQ3z-ReAV-3">
          <mxGeometry x="610" y="510" width="90" height="90" as="geometry" />
        </mxCell>
        <mxCell id="W9LA0Zj8rEDHQ3z-ReAV-24" value="" style="sketch=0;points=[[0,0,0],[0.25,0,0],[0.5,0,0],[0.75,0,0],[1,0,0],[0,1,0],[0.25,1,0],[0.5,1,0],[0.75,1,0],[1,1,0],[0,0.25,0],[0,0.5,0],[0,0.75,0],[1,0.25,0],[1,0.5,0],[1,0.75,0]];outlineConnect=0;fontColor=#232F3E;fillColor=#ED7100;strokeColor=#ffffff;dashed=0;verticalLabelPosition=bottom;verticalAlign=top;align=center;html=1;fontSize=12;fontStyle=0;aspect=fixed;shape=mxgraph.aws4.resourceIcon;resIcon=mxgraph.aws4.ec2;" vertex="1" parent="W9LA0Zj8rEDHQ3z-ReAV-3">
          <mxGeometry x="610" y="240" width="80" height="80" as="geometry" />
        </mxCell>
        <mxCell id="W9LA0Zj8rEDHQ3z-ReAV-29" value="" style="sketch=0;points=[[0,0,0],[0.25,0,0],[0.5,0,0],[0.75,0,0],[1,0,0],[0,1,0],[0.25,1,0],[0.5,1,0],[0.75,1,0],[1,1,0],[0,0.25,0],[0,0.5,0],[0,0.75,0],[1,0.25,0],[1,0.5,0],[1,0.75,0]];points=[[0,0,0],[0.25,0,0],[0.5,0,0],[0.75,0,0],[1,0,0],[0,1,0],[0.25,1,0],[0.5,1,0],[0.75,1,0],[1,1,0],[0,0.25,0],[0,0.5,0],[0,0.75,0],[1,0.25,0],[1,0.5,0],[1,0.75,0]];outlineConnect=0;fontColor=#232F3E;fillColor=#E7157B;strokeColor=#ffffff;dashed=0;verticalLabelPosition=bottom;verticalAlign=top;align=center;html=1;fontSize=12;fontStyle=0;aspect=fixed;shape=mxgraph.aws4.resourceIcon;resIcon=mxgraph.aws4.cloudwatch_2;" vertex="1" parent="W9LA0Zj8rEDHQ3z-ReAV-3">
          <mxGeometry x="405.5" y="780" width="78" height="78" as="geometry" />
        </mxCell>
        <mxCell id="W9LA0Zj8rEDHQ3z-ReAV-107" style="edgeStyle=orthogonalEdgeStyle;rounded=0;orthogonalLoop=1;jettySize=auto;html=1;exitX=0;exitY=0.48;exitDx=0;exitDy=0;exitPerimeter=0;" edge="1" parent="W9LA0Zj8rEDHQ3z-ReAV-3" source="W9LA0Zj8rEDHQ3z-ReAV-30" target="W9LA0Zj8rEDHQ3z-ReAV-105">
          <mxGeometry relative="1" as="geometry" />
        </mxCell>
        <mxCell id="W9LA0Zj8rEDHQ3z-ReAV-30" value="" style="outlineConnect=0;dashed=0;verticalLabelPosition=bottom;verticalAlign=top;align=center;html=1;shape=mxgraph.aws3.sns;fillColor=#D9A741;gradientColor=none;" vertex="1" parent="W9LA0Zj8rEDHQ3z-ReAV-3">
          <mxGeometry x="173.5" y="781.5" width="76.5" height="76.5" as="geometry" />
        </mxCell>
        <mxCell id="W9LA0Zj8rEDHQ3z-ReAV-31" value="Amazon S3" style="sketch=0;outlineConnect=0;fontColor=#232F3E;gradientColor=none;strokeColor=#ffffff;fillColor=#232F3E;dashed=0;verticalLabelPosition=middle;verticalAlign=bottom;align=center;html=1;whiteSpace=wrap;fontSize=10;fontStyle=1;spacing=3;shape=mxgraph.aws4.productIcon;prIcon=mxgraph.aws4.s3;" vertex="1" parent="W9LA0Zj8rEDHQ3z-ReAV-3">
          <mxGeometry x="620" y="780" width="80" height="100" as="geometry" />
        </mxCell>
        <mxCell id="W9LA0Zj8rEDHQ3z-ReAV-19" value="Auto Scaling group" style="points=[[0,0],[0.25,0],[0.5,0],[0.75,0],[1,0],[1,0.25],[1,0.5],[1,0.75],[1,1],[0.75,1],[0.5,1],[0.25,1],[0,1],[0,0.75],[0,0.5],[0,0.25]];outlineConnect=0;gradientColor=none;html=1;whiteSpace=wrap;fontSize=12;fontStyle=0;container=1;pointerEvents=0;collapsible=0;recursiveResize=0;shape=mxgraph.aws4.groupCenter;grIcon=mxgraph.aws4.group_auto_scaling_group;grStroke=1;strokeColor=#D86613;fillColor=none;verticalAlign=top;align=center;fontColor=#D86613;dashed=1;spacingTop=25;" vertex="1" parent="W9LA0Zj8rEDHQ3z-ReAV-3">
          <mxGeometry x="120" y="480" width="640" height="160" as="geometry" />
        </mxCell>
        <mxCell id="W9LA0Zj8rEDHQ3z-ReAV-28" value="" style="outlineConnect=0;dashed=0;verticalLabelPosition=bottom;verticalAlign=top;align=center;html=1;shape=mxgraph.aws3.volume;fillColor=#E05243;gradientColor=none;" vertex="1" parent="W9LA0Zj8rEDHQ3z-ReAV-19">
          <mxGeometry x="590" y="80" width="30" height="40" as="geometry" />
        </mxCell>
        <mxCell id="W9LA0Zj8rEDHQ3z-ReAV-22" value="" style="sketch=0;points=[[0,0,0],[0.25,0,0],[0.5,0,0],[0.75,0,0],[1,0,0],[0,1,0],[0.25,1,0],[0.5,1,0],[0.75,1,0],[1,1,0],[0,0.25,0],[0,0.5,0],[0,0.75,0],[1,0.25,0],[1,0.5,0],[1,0.75,0]];outlineConnect=0;fontColor=#232F3E;fillColor=#ED7100;strokeColor=#ffffff;dashed=0;verticalLabelPosition=bottom;verticalAlign=top;align=center;html=1;fontSize=12;fontStyle=0;aspect=fixed;shape=mxgraph.aws4.resourceIcon;resIcon=mxgraph.aws4.ec2;" vertex="1" parent="W9LA0Zj8rEDHQ3z-ReAV-19">
          <mxGeometry x="40" y="40" width="80" height="80" as="geometry" />
        </mxCell>
        <mxCell id="W9LA0Zj8rEDHQ3z-ReAV-77" style="edgeStyle=orthogonalEdgeStyle;rounded=0;orthogonalLoop=1;jettySize=auto;html=1;exitX=1;exitY=1;exitDx=0;exitDy=0;exitPerimeter=0;" edge="1" parent="W9LA0Zj8rEDHQ3z-ReAV-19" source="W9LA0Zj8rEDHQ3z-ReAV-27">
          <mxGeometry relative="1" as="geometry">
            <mxPoint x="540" y="300" as="targetPoint" />
          </mxGeometry>
        </mxCell>
        <mxCell id="W9LA0Zj8rEDHQ3z-ReAV-27" value="" style="outlineConnect=0;dashed=0;verticalLabelPosition=bottom;verticalAlign=top;align=center;html=1;shape=mxgraph.aws3.volume;fillColor=#E05243;gradientColor=none;" vertex="1" parent="W9LA0Zj8rEDHQ3z-ReAV-19">
          <mxGeometry x="130" y="80" width="30.5" height="40" as="geometry" />
        </mxCell>
        <mxCell id="W9LA0Zj8rEDHQ3z-ReAV-45" value="" style="sketch=0;outlineConnect=0;fontColor=#232F3E;gradientColor=none;fillColor=#8C4FFF;strokeColor=none;dashed=0;verticalLabelPosition=bottom;verticalAlign=top;align=center;html=1;fontSize=12;fontStyle=0;aspect=fixed;pointerEvents=1;shape=mxgraph.aws4.route_table;" vertex="1" parent="W9LA0Zj8rEDHQ3z-ReAV-19">
          <mxGeometry x="299.47" y="80" width="41.06" height="40" as="geometry" />
        </mxCell>
        <mxCell id="W9LA0Zj8rEDHQ3z-ReAV-91" value="EC2" style="text;html=1;align=center;verticalAlign=middle;whiteSpace=wrap;rounded=0;" vertex="1" parent="W9LA0Zj8rEDHQ3z-ReAV-19">
          <mxGeometry x="40" y="130" width="60" height="30" as="geometry" />
        </mxCell>
        <mxCell id="W9LA0Zj8rEDHQ3z-ReAV-95" value="&lt;div&gt;EBS Volume&lt;/div&gt;&lt;div&gt;&lt;br&gt;&lt;/div&gt;" style="text;html=1;align=center;verticalAlign=middle;whiteSpace=wrap;rounded=0;" vertex="1" parent="W9LA0Zj8rEDHQ3z-ReAV-19">
          <mxGeometry x="140" y="50" width="60" height="30" as="geometry" />
        </mxCell>
        <mxCell id="W9LA0Zj8rEDHQ3z-ReAV-97" value="EBS Volume" style="text;html=1;align=center;verticalAlign=middle;whiteSpace=wrap;rounded=0;" vertex="1" parent="W9LA0Zj8rEDHQ3z-ReAV-19">
          <mxGeometry x="580" y="60" width="60" as="geometry" />
        </mxCell>
        <mxCell id="W9LA0Zj8rEDHQ3z-ReAV-103" value="private-rt" style="text;html=1;align=center;verticalAlign=middle;whiteSpace=wrap;rounded=0;" vertex="1" parent="W9LA0Zj8rEDHQ3z-ReAV-19">
          <mxGeometry x="290" y="130" width="60" height="20" as="geometry" />
        </mxCell>
        <mxCell id="W9LA0Zj8rEDHQ3z-ReAV-64" style="edgeStyle=orthogonalEdgeStyle;rounded=0;orthogonalLoop=1;jettySize=auto;html=1;exitX=1;exitY=0.5;exitDx=0;exitDy=0;exitPerimeter=0;entryX=-0.006;entryY=0.314;entryDx=0;entryDy=0;entryPerimeter=0;" edge="1" parent="W9LA0Zj8rEDHQ3z-ReAV-3" source="W9LA0Zj8rEDHQ3z-ReAV-11" target="W9LA0Zj8rEDHQ3z-ReAV-5">
          <mxGeometry relative="1" as="geometry" />
        </mxCell>
        <mxCell id="W9LA0Zj8rEDHQ3z-ReAV-66" style="edgeStyle=orthogonalEdgeStyle;rounded=0;orthogonalLoop=1;jettySize=auto;html=1;exitX=0;exitY=0.5;exitDx=0;exitDy=0;exitPerimeter=0;entryX=1.016;entryY=0.313;entryDx=0;entryDy=0;entryPerimeter=0;" edge="1" parent="W9LA0Zj8rEDHQ3z-ReAV-3" source="W9LA0Zj8rEDHQ3z-ReAV-11" target="W9LA0Zj8rEDHQ3z-ReAV-4">
          <mxGeometry relative="1" as="geometry" />
        </mxCell>
        <mxCell id="W9LA0Zj8rEDHQ3z-ReAV-69" style="edgeStyle=orthogonalEdgeStyle;rounded=0;orthogonalLoop=1;jettySize=auto;html=1;exitX=0;exitY=0.5;exitDx=0;exitDy=0;exitPerimeter=0;" edge="1" parent="W9LA0Zj8rEDHQ3z-ReAV-3">
          <mxGeometry relative="1" as="geometry">
            <mxPoint x="420" y="10" as="sourcePoint" />
            <mxPoint x="95" y="209" as="targetPoint" />
          </mxGeometry>
        </mxCell>
        <mxCell id="W9LA0Zj8rEDHQ3z-ReAV-67" value="" style="outlineConnect=0;dashed=0;verticalLabelPosition=bottom;verticalAlign=top;align=center;html=1;shape=mxgraph.aws3.internet_gateway;fillColor=#F58534;gradientColor=none;" vertex="1" parent="W9LA0Zj8rEDHQ3z-ReAV-3">
          <mxGeometry x="420" y="-20" width="49" height="42" as="geometry" />
        </mxCell>
        <mxCell id="W9LA0Zj8rEDHQ3z-ReAV-72" style="edgeStyle=orthogonalEdgeStyle;rounded=0;orthogonalLoop=1;jettySize=auto;html=1;exitX=0.5;exitY=1;exitDx=0;exitDy=0;exitPerimeter=0;entryX=0;entryY=0.25;entryDx=0;entryDy=0;" edge="1" parent="W9LA0Zj8rEDHQ3z-ReAV-3" source="W9LA0Zj8rEDHQ3z-ReAV-70" target="W9LA0Zj8rEDHQ3z-ReAV-19">
          <mxGeometry relative="1" as="geometry" />
        </mxCell>
        <mxCell id="W9LA0Zj8rEDHQ3z-ReAV-70" value="" style="outlineConnect=0;dashed=0;verticalLabelPosition=bottom;verticalAlign=top;align=center;html=1;shape=mxgraph.aws3.vpc_nat_gateway;fillColor=#F58534;gradientColor=none;" vertex="1" parent="W9LA0Zj8rEDHQ3z-ReAV-3">
          <mxGeometry x="80" y="200" width="20" height="30" as="geometry" />
        </mxCell>
        <mxCell id="W9LA0Zj8rEDHQ3z-ReAV-73" style="edgeStyle=orthogonalEdgeStyle;rounded=0;orthogonalLoop=1;jettySize=auto;html=1;exitX=0.5;exitY=0;exitDx=0;exitDy=0;" edge="1" parent="W9LA0Zj8rEDHQ3z-ReAV-3" source="W9LA0Zj8rEDHQ3z-ReAV-19" target="W9LA0Zj8rEDHQ3z-ReAV-29">
          <mxGeometry relative="1" as="geometry" />
        </mxCell>
        <mxCell id="W9LA0Zj8rEDHQ3z-ReAV-76" style="edgeStyle=orthogonalEdgeStyle;rounded=0;orthogonalLoop=1;jettySize=auto;html=1;exitX=1;exitY=1;exitDx=0;exitDy=0;exitPerimeter=0;" edge="1" parent="W9LA0Zj8rEDHQ3z-ReAV-3" source="W9LA0Zj8rEDHQ3z-ReAV-28" target="W9LA0Zj8rEDHQ3z-ReAV-31">
          <mxGeometry relative="1" as="geometry" />
        </mxCell>
        <mxCell id="W9LA0Zj8rEDHQ3z-ReAV-78" value="" style="shadow=0;dashed=0;html=1;strokeColor=none;fillColor=#4495D1;labelPosition=center;verticalLabelPosition=bottom;verticalAlign=top;align=center;outlineConnect=0;shape=mxgraph.veeam.snapshot;" vertex="1" parent="W9LA0Zj8rEDHQ3z-ReAV-3">
          <mxGeometry x="710" y="830" width="40" height="30" as="geometry" />
        </mxCell>
        <mxCell id="W9LA0Zj8rEDHQ3z-ReAV-82" style="edgeStyle=orthogonalEdgeStyle;rounded=0;orthogonalLoop=1;jettySize=auto;html=1;exitX=0.5;exitY=1;exitDx=0;exitDy=0;exitPerimeter=0;entryX=0.5;entryY=0;entryDx=0;entryDy=0;entryPerimeter=0;" edge="1" parent="W9LA0Zj8rEDHQ3z-ReAV-3" source="W9LA0Zj8rEDHQ3z-ReAV-67" target="W9LA0Zj8rEDHQ3z-ReAV-11">
          <mxGeometry relative="1" as="geometry" />
        </mxCell>
        <mxCell id="W9LA0Zj8rEDHQ3z-ReAV-83" style="edgeStyle=orthogonalEdgeStyle;rounded=0;orthogonalLoop=1;jettySize=auto;html=1;exitX=0.855;exitY=0.145;exitDx=0;exitDy=0;exitPerimeter=0;entryX=0.855;entryY=0.855;entryDx=0;entryDy=0;entryPerimeter=0;" edge="1" parent="W9LA0Zj8rEDHQ3z-ReAV-3" source="W9LA0Zj8rEDHQ3z-ReAV-11" target="W9LA0Zj8rEDHQ3z-ReAV-67">
          <mxGeometry relative="1" as="geometry" />
        </mxCell>
        <mxCell id="W9LA0Zj8rEDHQ3z-ReAV-96" value="EC2" style="text;html=1;align=center;verticalAlign=middle;whiteSpace=wrap;rounded=0;" vertex="1" parent="W9LA0Zj8rEDHQ3z-ReAV-3">
          <mxGeometry x="610" y="610" width="60" height="30" as="geometry" />
        </mxCell>
        <mxCell id="W9LA0Zj8rEDHQ3z-ReAV-98" value="SNS Topic" style="text;html=1;align=center;verticalAlign=middle;whiteSpace=wrap;rounded=0;" vertex="1" parent="W9LA0Zj8rEDHQ3z-ReAV-3">
          <mxGeometry x="181.75" y="860" width="60" height="30" as="geometry" />
        </mxCell>
        <mxCell id="W9LA0Zj8rEDHQ3z-ReAV-99" value="CloudWatch Alarm" style="text;html=1;align=center;verticalAlign=middle;whiteSpace=wrap;rounded=0;" vertex="1" parent="W9LA0Zj8rEDHQ3z-ReAV-3">
          <mxGeometry x="414.5" y="880" width="60" height="10" as="geometry" />
        </mxCell>
        <mxCell id="W9LA0Zj8rEDHQ3z-ReAV-105" value="" style="outlineConnect=0;dashed=0;verticalLabelPosition=bottom;verticalAlign=top;align=center;html=1;shape=mxgraph.aws3.email;fillColor=#D9A741;gradientColor=none;" vertex="1" parent="W9LA0Zj8rEDHQ3z-ReAV-3">
          <mxGeometry y="788.25" width="81" height="61.5" as="geometry" />
        </mxCell>
        <mxCell id="W9LA0Zj8rEDHQ3z-ReAV-108" style="edgeStyle=orthogonalEdgeStyle;rounded=0;orthogonalLoop=1;jettySize=auto;html=1;exitX=0;exitY=0.5;exitDx=0;exitDy=0;exitPerimeter=0;entryX=1;entryY=0.5;entryDx=0;entryDy=0;entryPerimeter=0;" edge="1" parent="W9LA0Zj8rEDHQ3z-ReAV-3" source="W9LA0Zj8rEDHQ3z-ReAV-29" target="W9LA0Zj8rEDHQ3z-ReAV-30">
          <mxGeometry relative="1" as="geometry" />
        </mxCell>
        <mxCell id="W9LA0Zj8rEDHQ3z-ReAV-109" value="&lt;div&gt;Email notification&lt;/div&gt;&lt;div&gt;&lt;br&gt;&lt;/div&gt;" style="text;html=1;align=center;verticalAlign=middle;whiteSpace=wrap;rounded=0;" vertex="1" parent="W9LA0Zj8rEDHQ3z-ReAV-3">
          <mxGeometry x="10.5" y="860" width="60" height="30" as="geometry" />
        </mxCell>
        <mxCell id="W9LA0Zj8rEDHQ3z-ReAV-112" value="&lt;div&gt;NAT Gateway&lt;/div&gt;&lt;div&gt;&lt;br&gt;&lt;/div&gt;" style="text;html=1;align=center;verticalAlign=middle;whiteSpace=wrap;rounded=0;" vertex="1" parent="W9LA0Zj8rEDHQ3z-ReAV-3">
          <mxGeometry x="21" y="200" width="60" height="30" as="geometry" />
        </mxCell>
      </root>
    </mxGraphModel>
  </diagram>
</mxfile>
